<svg width="49" height="49" viewBox="0 0 49 49" xmlns="http://www.w3.org/2000/svg">
    <g fill="#000" fill-rule="nonzero">
        <path d="M45.941 23.283a2.13 2.13 0 0 0-.733.13 2.09 2.09 0 0 0-1.737-.896 2.13 2.13 0 0 0-.733.13A2.09 2.09 0 0 0 41 21.75c-.14 0-.28.015-.412.038v-3.871c0-1.058-.922-1.917-2.059-1.917-1.136 0-2.058.859-2.058 1.917v6.516h-.824c-.906 0-1.647.69-1.647 1.534v4.216c0 1.963 1.35 3.703 3.294 4.34V39h1.647v-5.06c0-.368-.28-.682-.659-.751-1.523-.284-2.635-1.549-2.635-3.006v-4.216h.824v3.066h1.647V17.917c0-.215.18-.384.411-.384.231 0 .412.169.412.384v8.816h1.647v-3.066c0-.215.181-.384.412-.384.23 0 .412.169.412.384v3.066h1.647v-2.3c0-.214.19-.383.412-.383.222 0 .411.169.411.383v2.3h1.647V25.2c0-.215.182-.383.412-.383.23 0 .412.168.412.383v4.983c0 1.794-1.301 2.753-2.075 3.167a.761.761 0 0 0-.412.667V39h1.647v-4.562c1.59-1.004 2.487-2.53 2.487-4.255V25.2c0-1.058-.922-1.917-2.059-1.917zM29.6 32.411v-2.488a.8.8 0 0 0-.8-.795h-9.6V18.795a.8.8 0 0 0-.8-.795H.8a.8.8 0 0 0-.8.795v29.41A.8.8 0 0 0 .8 49h28.8a.8.8 0 0 0 .8-.795v-9.983a3.16 3.16 0 0 0 1.6-2.735 3.185 3.185 0 0 0-2.4-3.076zm-18.4 15H1.6V19.59h16v9.538h-4.8a.8.8 0 0 0-.8.795v2.488a3.185 3.185 0 0 0-2.4 3.076 3.16 3.16 0 0 0 1.6 2.735v9.188zm17.6 0h-16v-8.744c.736 0 1.44-.255 2-.7 1.12.89 2.88.89 4 0 1.12.89 2.88.89 4 0 1.12.89 2.88.89 4 0 .56.445 1.264.7 2 .7v8.743zm0-10.334a1.62 1.62 0 0 1-1.336-.715.808.808 0 0 0-.664-.358.797.797 0 0 0-.664.358c-.296.445-.8.715-1.336.715a1.62 1.62 0 0 1-1.336-.715c-.296-.446-1.04-.446-1.336 0-.296.445-.8.715-1.336.715a1.62 1.62 0 0 1-1.336-.715c-.296-.446-1.04-.446-1.336 0-.296.445-.8.715-1.336.715a1.62 1.62 0 0 1-1.336-.715c-.296-.446-1.04-.446-1.336 0-.296.445-.8.715-1.336.715a1.6 1.6 0 0 1-1.6-1.59 1.6 1.6 0 0 1 1.6-1.59.8.8 0 0 0 .8-.794v-2.385h14.4v2.385a.8.8 0 0 0 .8.794c.88 0 1.6.716 1.6 1.59a1.6 1.6 0 0 1-1.6 1.59h.024z"/>
        <path d="M25.167 41h-8.334c-.458 0-.833.321-.833.714v3.572c0 .393.375.714.833.714h8.334c.458 0 .833-.321.833-.714v-3.572c0-.393-.375-.714-.833-.714zm-.834 3.571h-6.666V42.43h6.666v2.142zM12.667 27h2.666c.367 0 .667-.3.667-.667v-2.666c0-.367-.3-.667-.667-.667h-2.666c-.367 0-.667.3-.667.667v2.666c0 .367.3.667.667.667zm.666-2.667h1.334v1.334h-1.334v-1.334zM6.333 23H3.667C3.3 23 3 23.3 3 23.667v2.666c0 .367.3.667.667.667h2.666C6.7 27 7 26.7 7 26.333v-2.666C7 23.3 6.7 23 6.333 23zm-.666 2.667H4.333v-1.334h1.334v1.334zM6.333 32H3.667C3.3 32 3 32.3 3 32.667v2.666c0 .367.3.667.667.667h2.666C6.7 36 7 35.7 7 35.333v-2.666C7 32.3 6.7 32 6.333 32zm-.666 2.667H4.333v-1.334h1.334v1.334zM6.333 41H3.667C3.3 41 3 41.3 3 41.667v2.666c0 .367.3.667.667.667h2.666C6.7 45 7 44.7 7 44.333v-2.666C7 41.3 6.7 41 6.333 41zm-.666 2.667H4.333v-1.334h1.334v1.334z"/>
        <path d="M29.6 32.411v-2.488a.8.8 0 0 0-.8-.795h-9.6V18.795a.8.8 0 0 0-.8-.795H.8a.8.8 0 0 0-.8.795v29.41A.8.8 0 0 0 .8 49h28.8a.8.8 0 0 0 .8-.795v-9.983a3.16 3.16 0 0 0 1.6-2.735 3.185 3.185 0 0 0-2.4-3.076zm-18.4 15H1.6V19.59h16v9.538h-4.8a.8.8 0 0 0-.8.795v2.488a3.185 3.185 0 0 0-2.4 3.076 3.16 3.16 0 0 0 1.6 2.735v9.188zm17.6 0h-16v-8.744c.736 0 1.44-.255 2-.7 1.12.89 2.88.89 4 0 1.12.89 2.88.89 4 0 1.12.89 2.88.89 4 0 .56.445 1.264.7 2 .7v8.743zm0-10.334a1.62 1.62 0 0 1-1.336-.715.808.808 0 0 0-.664-.358.797.797 0 0 0-.664.358c-.296.445-.8.715-1.336.715a1.62 1.62 0 0 1-1.336-.715c-.296-.446-1.04-.446-1.336 0-.296.445-.8.715-1.336.715a1.62 1.62 0 0 1-1.336-.715c-.296-.446-1.04-.446-1.336 0-.296.445-.8.715-1.336.715a1.62 1.62 0 0 1-1.336-.715c-.296-.446-1.04-.446-1.336 0-.296.445-.8.715-1.336.715a1.6 1.6 0 0 1-1.6-1.59 1.6 1.6 0 0 1 1.6-1.59.8.8 0 0 0 .8-.794v-2.385h14.4v2.385a.8.8 0 0 0 .8.794c.88 0 1.6.716 1.6 1.59a1.6 1.6 0 0 1-1.6 1.59h.024z"/>
        <path d="M25.167 41h-8.334c-.458 0-.833.321-.833.714v3.572c0 .393.375.714.833.714h8.334c.458 0 .833-.321.833-.714v-3.572c0-.393-.375-.714-.833-.714zm-.834 3.571h-6.666V42.43h6.666v2.142zM12.667 27h2.666c.367 0 .667-.3.667-.667v-2.666c0-.367-.3-.667-.667-.667h-2.666c-.367 0-.667.3-.667.667v2.666c0 .367.3.667.667.667zm.666-2.667h1.334v1.334h-1.334v-1.334zM6.333 23H3.667C3.3 23 3 23.3 3 23.667v2.666c0 .367.3.667.667.667h2.666C6.7 27 7 26.7 7 26.333v-2.666C7 23.3 6.7 23 6.333 23zm-.666 2.667H4.333v-1.334h1.334v1.334zM6.333 32H3.667C3.3 32 3 32.3 3 32.667v2.666c0 .367.3.667.667.667h2.666C6.7 36 7 35.7 7 35.333v-2.666C7 32.3 6.7 32 6.333 32zm-.666 2.667H4.333v-1.334h1.334v1.334zM6.333 41H3.667C3.3 41 3 41.3 3 41.667v2.666c0 .367.3.667.667.667h2.666C6.7 45 7 44.7 7 44.333v-2.666C7 41.3 6.7 41 6.333 41zm-.666 2.667H4.333v-1.334h1.334v1.334zM37.706 12.786 44 7.04 42.86 6l-5.72 5.22-2-1.823-1.14 1.04 2.573 2.349a.836.836 0 0 0 .574.214c.21 0 .413-.074.575-.214h-.016z"/>
        <path d="M39.008 0C33.488 0 29 4.653 29 10.375c0 4.254 2.456 8.029 6.251 9.625l.577-1.476c-3.218-1.35-5.296-4.55-5.296-8.14 0-4.845 3.795-8.78 8.468-8.78s8.468 3.935 8.468 8.78c0 3.598-2.078 6.79-5.296 8.14L42.749 20C46.552 18.404 49 14.629 49 10.375 49 4.653 44.512 0 38.992 0h.016z"/>
    </g>
</svg>
