<svg width="38" height="46" viewBox="0 0 38 46" xmlns="http://www.w3.org/2000/svg">
    <g fill="#000" fill-rule="nonzero">
        <path d="M8.786 30h9.428c.434 0 .786-.336.786-.75v-2.625c-.004-1.416-.701-2.748-1.886-3.6l-.846-.606c.247-.436.375-.924.375-1.419v-3.523c0-.913-.527-1.753-1.37-2.184a2.7 2.7 0 0 0-2.665.123l-1.901 1.21a.741.741 0 0 0-.35.624V21c0 .495.128.983.375 1.42l-.846.605c-1.185.852-1.882 2.184-1.886 3.6v2.625c0 .414.352.75.786.75zm4.714-7.5c-.867 0-1.57-.672-1.571-1.5v-1.5h3.142V21c0 .828-.704 1.5-1.571 1.5zm-1.571-4.849 1.551-.987c.314-.2.718-.218 1.05-.048.334.17.541.5.541.861V18H11.93v-.349zM9.57 26.625a2.97 2.97 0 0 1 1.258-2.4l.977-.7c.28.172.586.3.908.38V25.5h1.572v-1.595c.322-.08.628-.208.908-.38l.977.7a2.97 2.97 0 0 1 1.258 2.4V28.5h-3.143V27h-1.572v1.5H9.571v-1.875z"/>
        <path d="M35.673 0H21.714c-1.284.001-2.325 1.03-2.326 2.3v.767H17.06c-1.284.001-2.325 1.03-2.326 2.3V6.9h-1.551c-1.285.001-2.325 1.03-2.327 2.3v1.533H8.72a3.1 3.1 0 0 0-2.194.898L.91 17.184A3.03 3.03 0 0 0 0 19.353V43.7c.001 1.27 1.042 2.299 2.327 2.3H24.04c1.284-.001 2.325-1.03 2.326-2.3v-2.3h1.551c1.285-.001 2.325-1.03 2.327-2.3v-1.533h1.55c1.285-.002 2.326-1.03 2.327-2.3V18.4h1.551C36.958 18.399 38 17.37 38 16.1V2.3C37.999 1.03 36.958.001 35.673 0zM16.286 5.367c0-.424.347-.767.775-.767h2.327v2.3h-3.102V5.367zM12.408 9.2c0-.423.348-.766.776-.767h6.204v2.3h-6.98V9.2zm11.633 35.267H2.327a.772.772 0 0 1-.776-.767V19.353a1.514 1.514 0 0 1 .454-1.084l5.617-5.553a1.55 1.55 0 0 1 1.097-.45h10.669V16.1c.001 1.27 1.042 2.299 2.326 2.3h3.102v25.3a.772.772 0 0 1-.775.767zm3.877-4.6h-1.55V18.4h2.326v20.7a.772.772 0 0 1-.776.767zm4.653-4.6a.772.772 0 0 1-.775.766h-1.551V18.4h2.326v16.867zM36.45 16.1a.772.772 0 0 1-.776.767H21.714a.772.772 0 0 1-.775-.767V2.3c0-.423.347-.766.775-.767h13.96c.428 0 .774.344.775.767v13.8z"/>
        <path d="M34.25 5.824h-3.242L29.696 2.48A.75.75 0 0 0 29 2a.75.75 0 0 0-.696.48l-1.312 3.344H23.75a.75.75 0 0 0-.693.472.776.776 0 0 0 .163.833l2.672 2.725-1.354 4.14a.773.773 0 0 0 .283.869.739.739 0 0 0 .898-.03L29 12.155l3.281 2.676c.26.212.625.224.898.03a.773.773 0 0 0 .283-.869l-1.354-4.14L34.78 7.13a.776.776 0 0 0 .163-.833.75.75 0 0 0-.693-.472zm-3.53 3.282a.776.776 0 0 0-.182.783l.697 2.131-1.766-1.44a.739.739 0 0 0-.938 0l-1.766 1.44.697-2.131a.776.776 0 0 0-.182-.783l-1.72-1.753h1.94a.75.75 0 0 0 .696-.48L29 4.822l.804 2.05c.114.29.39.48.696.48h1.94l-1.72 1.753zM17 35h5v2h-5zM14 35h2v2h-2zM20 38h3v2h-3zM12 38h6v2h-6zM9.98 33l-1.23 1.231H4.72a.721.721 0 0 0-.721.721v4.327c0 .398.323.721.721.721h4.327a.721.721 0 0 0 .72-.721V35.25L11 34.02 9.98 33zm-1.653 5.558H5.442v-2.885h1.865l-.932.933 1.02 1.02.932-.933v1.865z"/>
    </g>
</svg>
